<mxfile host="app.diagrams.net" modified="2022-04-26T21:01:57.330Z" agent="5.0 (Windows NT 10.0; Win64; x64) AppleWebKit/537.36 (KHTML, like Gecko) Chrome/100.0.4896.127 Safari/537.36" etag="yYU2TFzPZ6mJ9QpjMGnN" version="17.4.4" type="github">
  <diagram id="ur7IZuqoX-rUSIcCa9Om" name="Page-1">
    <mxGraphModel dx="1249" dy="669" grid="1" gridSize="10" guides="1" tooltips="1" connect="1" arrows="1" fold="1" page="1" pageScale="1" pageWidth="1169" pageHeight="1654" math="0" shadow="0">
      <root>
        <mxCell id="0" />
        <mxCell id="1" parent="0" />
        <mxCell id="HAqWKhdZ4ZWkqPBJDIEz-1" value="Telefone_Setor" style="ellipse;whiteSpace=wrap;html=1;align=center;" parent="1" vertex="1">
          <mxGeometry x="330" y="810" width="100" height="40" as="geometry" />
        </mxCell>
        <mxCell id="HAqWKhdZ4ZWkqPBJDIEz-2" value="E-mail_Setor" style="ellipse;whiteSpace=wrap;html=1;align=center;" parent="1" vertex="1">
          <mxGeometry x="210" y="810" width="100" height="40" as="geometry" />
        </mxCell>
        <mxCell id="HAqWKhdZ4ZWkqPBJDIEz-3" value="Nome_Fantasia" style="ellipse;whiteSpace=wrap;html=1;align=center;" parent="1" vertex="1">
          <mxGeometry x="280" y="560" width="100" height="40" as="geometry" />
        </mxCell>
        <mxCell id="HAqWKhdZ4ZWkqPBJDIEz-4" value="Razao_Social" style="ellipse;whiteSpace=wrap;html=1;align=center;" parent="1" vertex="1">
          <mxGeometry x="280" y="610" width="100" height="40" as="geometry" />
        </mxCell>
        <mxCell id="HAqWKhdZ4ZWkqPBJDIEz-5" value="Local_Matriz" style="ellipse;whiteSpace=wrap;html=1;align=center;" parent="1" vertex="1">
          <mxGeometry x="260" y="470" width="100" height="40" as="geometry" />
        </mxCell>
        <mxCell id="HAqWKhdZ4ZWkqPBJDIEz-6" value="Comunicacao" style="ellipse;whiteSpace=wrap;html=1;align=center;" parent="1" vertex="1">
          <mxGeometry x="290" y="740" width="100" height="40" as="geometry" />
        </mxCell>
        <mxCell id="HAqWKhdZ4ZWkqPBJDIEz-7" value="CNPJ_Matriz" style="ellipse;whiteSpace=wrap;html=1;align=center;fontStyle=4;fillColor=#f8cecc;strokeColor=#b85450;" parent="1" vertex="1">
          <mxGeometry x="280" y="660" width="100" height="40" as="geometry" />
        </mxCell>
        <mxCell id="HAqWKhdZ4ZWkqPBJDIEz-8" value="Agente" style="whiteSpace=wrap;html=1;align=center;" parent="1" vertex="1">
          <mxGeometry x="455" y="620" width="105" height="60" as="geometry" />
        </mxCell>
        <mxCell id="HAqWKhdZ4ZWkqPBJDIEz-9" value="" style="edgeStyle=entityRelationEdgeStyle;fontSize=12;html=1;endArrow=ERzeroToMany;startArrow=ERmandOne;rounded=0;exitX=0;exitY=1;exitDx=0;exitDy=0;" parent="1" source="HAqWKhdZ4ZWkqPBJDIEz-8" target="HAqWKhdZ4ZWkqPBJDIEz-6" edge="1">
          <mxGeometry width="100" height="100" relative="1" as="geometry">
            <mxPoint x="580" y="640" as="sourcePoint" />
            <mxPoint x="680" y="540" as="targetPoint" />
          </mxGeometry>
        </mxCell>
        <mxCell id="HAqWKhdZ4ZWkqPBJDIEz-11" value="" style="edgeStyle=entityRelationEdgeStyle;fontSize=12;html=1;endArrow=ERmandOne;startArrow=ERmandOne;rounded=0;entryX=0;entryY=0.5;entryDx=0;entryDy=0;" parent="1" source="HAqWKhdZ4ZWkqPBJDIEz-7" target="HAqWKhdZ4ZWkqPBJDIEz-8" edge="1">
          <mxGeometry width="100" height="100" relative="1" as="geometry">
            <mxPoint x="580" y="740" as="sourcePoint" />
            <mxPoint x="680" y="640" as="targetPoint" />
          </mxGeometry>
        </mxCell>
        <mxCell id="HAqWKhdZ4ZWkqPBJDIEz-12" value="" style="edgeStyle=entityRelationEdgeStyle;fontSize=12;html=1;endArrow=ERmandOne;startArrow=ERmandOne;rounded=0;" parent="1" source="HAqWKhdZ4ZWkqPBJDIEz-4" target="HAqWKhdZ4ZWkqPBJDIEz-8" edge="1">
          <mxGeometry width="100" height="100" relative="1" as="geometry">
            <mxPoint x="580" y="740" as="sourcePoint" />
            <mxPoint x="680" y="640" as="targetPoint" />
          </mxGeometry>
        </mxCell>
        <mxCell id="HAqWKhdZ4ZWkqPBJDIEz-13" value="" style="edgeStyle=entityRelationEdgeStyle;fontSize=12;html=1;endArrow=ERmandOne;startArrow=ERmandOne;rounded=0;entryX=0;entryY=0.5;entryDx=0;entryDy=0;" parent="1" source="HAqWKhdZ4ZWkqPBJDIEz-3" target="HAqWKhdZ4ZWkqPBJDIEz-8" edge="1">
          <mxGeometry width="100" height="100" relative="1" as="geometry">
            <mxPoint x="580" y="740" as="sourcePoint" />
            <mxPoint x="680" y="640" as="targetPoint" />
          </mxGeometry>
        </mxCell>
        <mxCell id="HAqWKhdZ4ZWkqPBJDIEz-15" value="" style="edgeStyle=entityRelationEdgeStyle;fontSize=12;html=1;endArrow=ERzeroToMany;startArrow=ERmandOne;rounded=0;entryX=0;entryY=0;entryDx=0;entryDy=0;" parent="1" source="HAqWKhdZ4ZWkqPBJDIEz-5" target="HAqWKhdZ4ZWkqPBJDIEz-8" edge="1">
          <mxGeometry width="100" height="100" relative="1" as="geometry">
            <mxPoint x="580" y="740" as="sourcePoint" />
            <mxPoint x="680" y="640" as="targetPoint" />
          </mxGeometry>
        </mxCell>
        <mxCell id="HAqWKhdZ4ZWkqPBJDIEz-17" value="" style="fontSize=12;html=1;endArrow=ERzeroToMany;startArrow=ERmandOne;rounded=0;" parent="1" source="HAqWKhdZ4ZWkqPBJDIEz-6" target="HAqWKhdZ4ZWkqPBJDIEz-1" edge="1">
          <mxGeometry width="100" height="100" relative="1" as="geometry">
            <mxPoint x="326.5185037240378" y="759.2592803942316" as="sourcePoint" />
            <mxPoint x="283.48149627599105" y="820.740719605727" as="targetPoint" />
            <Array as="points" />
          </mxGeometry>
        </mxCell>
        <mxCell id="HAqWKhdZ4ZWkqPBJDIEz-18" value="eMail_Regulatorio" style="ellipse;whiteSpace=wrap;html=1;align=center;" parent="1" vertex="1">
          <mxGeometry x="130" y="900" width="100" height="40" as="geometry" />
        </mxCell>
        <mxCell id="HAqWKhdZ4ZWkqPBJDIEz-19" value="eMail_Contato" style="ellipse;whiteSpace=wrap;html=1;align=center;" parent="1" vertex="1">
          <mxGeometry x="200" y="950" width="100" height="40" as="geometry" />
        </mxCell>
        <mxCell id="HAqWKhdZ4ZWkqPBJDIEz-20" value="eMail_Juridico" style="ellipse;whiteSpace=wrap;html=1;align=center;" parent="1" vertex="1">
          <mxGeometry x="270" y="900" width="100" height="40" as="geometry" />
        </mxCell>
        <mxCell id="HAqWKhdZ4ZWkqPBJDIEz-21" value="" style="fontSize=12;html=1;endArrow=ERzeroToMany;startArrow=ERzeroToOne;rounded=0;" parent="1" source="HAqWKhdZ4ZWkqPBJDIEz-2" target="HAqWKhdZ4ZWkqPBJDIEz-18" edge="1">
          <mxGeometry width="100" height="100" relative="1" as="geometry">
            <mxPoint x="60" y="1090" as="sourcePoint" />
            <mxPoint x="160" y="990" as="targetPoint" />
          </mxGeometry>
        </mxCell>
        <mxCell id="HAqWKhdZ4ZWkqPBJDIEz-23" value="" style="fontSize=12;html=1;endArrow=ERzeroToOne;endFill=1;rounded=0;" parent="1" source="HAqWKhdZ4ZWkqPBJDIEz-6" target="HAqWKhdZ4ZWkqPBJDIEz-2" edge="1">
          <mxGeometry width="100" height="100" relative="1" as="geometry">
            <mxPoint x="580" y="840" as="sourcePoint" />
            <mxPoint x="680" y="740" as="targetPoint" />
          </mxGeometry>
        </mxCell>
        <mxCell id="HAqWKhdZ4ZWkqPBJDIEz-24" value="" style="fontSize=12;html=1;endArrow=ERzeroToMany;startArrow=ERzeroToOne;rounded=0;" parent="1" source="HAqWKhdZ4ZWkqPBJDIEz-2" target="HAqWKhdZ4ZWkqPBJDIEz-20" edge="1">
          <mxGeometry width="100" height="100" relative="1" as="geometry">
            <mxPoint x="580" y="840" as="sourcePoint" />
            <mxPoint x="680" y="740" as="targetPoint" />
          </mxGeometry>
        </mxCell>
        <mxCell id="HAqWKhdZ4ZWkqPBJDIEz-26" value="" style="fontSize=12;html=1;endArrow=ERzeroToMany;startArrow=ERzeroToOne;rounded=0;" parent="1" source="HAqWKhdZ4ZWkqPBJDIEz-2" target="HAqWKhdZ4ZWkqPBJDIEz-19" edge="1">
          <mxGeometry width="100" height="100" relative="1" as="geometry">
            <mxPoint x="580" y="840" as="sourcePoint" />
            <mxPoint x="390" y="1060" as="targetPoint" />
          </mxGeometry>
        </mxCell>
        <mxCell id="HAqWKhdZ4ZWkqPBJDIEz-27" value="Filial" style="whiteSpace=wrap;html=1;align=center;" parent="1" vertex="1">
          <mxGeometry x="610" y="380" width="100" height="40" as="geometry" />
        </mxCell>
        <mxCell id="HAqWKhdZ4ZWkqPBJDIEz-28" value="Contém" style="shape=rhombus;perimeter=rhombusPerimeter;whiteSpace=wrap;html=1;align=center;" parent="1" vertex="1">
          <mxGeometry x="530" y="470" width="70" height="35" as="geometry" />
        </mxCell>
        <mxCell id="HAqWKhdZ4ZWkqPBJDIEz-32" value="CNPJ_Matriz" style="ellipse;whiteSpace=wrap;html=1;align=center;fillColor=#d5e8d4;strokeColor=#82b366;" parent="1" vertex="1">
          <mxGeometry x="555" y="260" width="100" height="40" as="geometry" />
        </mxCell>
        <mxCell id="HAqWKhdZ4ZWkqPBJDIEz-33" value="CNPJ_Filial" style="ellipse;whiteSpace=wrap;html=1;align=center;fontStyle=4;fillColor=#f8cecc;strokeColor=#b85450;" parent="1" vertex="1">
          <mxGeometry x="630" y="210" width="100" height="40" as="geometry" />
        </mxCell>
        <mxCell id="HAqWKhdZ4ZWkqPBJDIEz-34" value="Endereço_Filial" style="ellipse;whiteSpace=wrap;html=1;align=center;" parent="1" vertex="1">
          <mxGeometry x="700" y="270" width="100" height="40" as="geometry" />
        </mxCell>
        <mxCell id="HAqWKhdZ4ZWkqPBJDIEz-35" value="Autorização" style="whiteSpace=wrap;html=1;align=center;" parent="1" vertex="1">
          <mxGeometry x="240" y="210" width="100" height="40" as="geometry" />
        </mxCell>
        <mxCell id="HAqWKhdZ4ZWkqPBJDIEz-38" value="" style="fontSize=12;html=1;endArrow=ERmandOne;startArrow=ERmandOne;rounded=0;entryX=0.5;entryY=1;entryDx=0;entryDy=0;" parent="1" source="HAqWKhdZ4ZWkqPBJDIEz-27" target="HAqWKhdZ4ZWkqPBJDIEz-32" edge="1">
          <mxGeometry width="100" height="100" relative="1" as="geometry">
            <mxPoint x="580" y="440" as="sourcePoint" />
            <mxPoint x="680" y="340" as="targetPoint" />
          </mxGeometry>
        </mxCell>
        <mxCell id="HAqWKhdZ4ZWkqPBJDIEz-39" value="" style="fontSize=12;html=1;endArrow=ERmandOne;startArrow=ERmandOne;rounded=0;entryX=0.5;entryY=1;entryDx=0;entryDy=0;" parent="1" source="HAqWKhdZ4ZWkqPBJDIEz-27" target="HAqWKhdZ4ZWkqPBJDIEz-33" edge="1">
          <mxGeometry width="100" height="100" relative="1" as="geometry">
            <mxPoint x="580" y="440" as="sourcePoint" />
            <mxPoint x="680" y="340" as="targetPoint" />
          </mxGeometry>
        </mxCell>
        <mxCell id="HAqWKhdZ4ZWkqPBJDIEz-41" value="" style="fontSize=12;html=1;endArrow=ERzeroToMany;startArrow=ERmandOne;rounded=0;" parent="1" source="HAqWKhdZ4ZWkqPBJDIEz-34" target="HAqWKhdZ4ZWkqPBJDIEz-27" edge="1">
          <mxGeometry width="100" height="100" relative="1" as="geometry">
            <mxPoint x="570" y="440" as="sourcePoint" />
            <mxPoint x="670" y="340" as="targetPoint" />
          </mxGeometry>
        </mxCell>
        <mxCell id="HAqWKhdZ4ZWkqPBJDIEz-42" value="Representante" style="whiteSpace=wrap;html=1;align=center;" parent="1" vertex="1">
          <mxGeometry x="730" y="565" width="130" height="40" as="geometry" />
        </mxCell>
        <mxCell id="HAqWKhdZ4ZWkqPBJDIEz-43" value="CNPJ" style="ellipse;whiteSpace=wrap;html=1;align=center;fillColor=#d5e8d4;strokeColor=#82b366;" parent="1" vertex="1">
          <mxGeometry x="690" y="485" width="100" height="40" as="geometry" />
        </mxCell>
        <mxCell id="HAqWKhdZ4ZWkqPBJDIEz-44" value="E-mail_Pessoal" style="ellipse;whiteSpace=wrap;html=1;align=center;" parent="1" vertex="1">
          <mxGeometry x="775" y="420" width="100" height="40" as="geometry" />
        </mxCell>
        <mxCell id="HAqWKhdZ4ZWkqPBJDIEz-45" value="Nome" style="ellipse;whiteSpace=wrap;html=1;align=center;" parent="1" vertex="1">
          <mxGeometry x="980" y="565" width="100" height="40" as="geometry" />
        </mxCell>
        <mxCell id="HAqWKhdZ4ZWkqPBJDIEz-46" value="Cargo" style="ellipse;whiteSpace=wrap;html=1;align=center;" parent="1" vertex="1">
          <mxGeometry x="910" y="620" width="100" height="40" as="geometry" />
        </mxCell>
        <mxCell id="HAqWKhdZ4ZWkqPBJDIEz-54" value="" style="fontSize=12;html=1;endArrow=ERmandOne;startArrow=ERmandOne;rounded=0;" parent="1" source="HAqWKhdZ4ZWkqPBJDIEz-42" target="HAqWKhdZ4ZWkqPBJDIEz-43" edge="1">
          <mxGeometry width="100" height="100" relative="1" as="geometry">
            <mxPoint x="580" y="740" as="sourcePoint" />
            <mxPoint x="680" y="640" as="targetPoint" />
          </mxGeometry>
        </mxCell>
        <mxCell id="HAqWKhdZ4ZWkqPBJDIEz-56" value="" style="fontSize=12;html=1;endArrow=ERzeroToMany;startArrow=ERmandOne;rounded=0;" parent="1" source="HAqWKhdZ4ZWkqPBJDIEz-42" target="HAqWKhdZ4ZWkqPBJDIEz-44" edge="1">
          <mxGeometry width="100" height="100" relative="1" as="geometry">
            <mxPoint x="580" y="740" as="sourcePoint" />
            <mxPoint x="680" y="640" as="targetPoint" />
          </mxGeometry>
        </mxCell>
        <mxCell id="HAqWKhdZ4ZWkqPBJDIEz-57" value="" style="fontSize=12;html=1;endArrow=ERmandOne;startArrow=ERmandOne;rounded=0;" parent="1" source="HAqWKhdZ4ZWkqPBJDIEz-42" target="HAqWKhdZ4ZWkqPBJDIEz-45" edge="1">
          <mxGeometry width="100" height="100" relative="1" as="geometry">
            <mxPoint x="580" y="740" as="sourcePoint" />
            <mxPoint x="680" y="640" as="targetPoint" />
          </mxGeometry>
        </mxCell>
        <mxCell id="HAqWKhdZ4ZWkqPBJDIEz-58" value="" style="fontSize=12;html=1;endArrow=ERmandOne;startArrow=ERmandOne;rounded=0;" parent="1" source="HAqWKhdZ4ZWkqPBJDIEz-42" target="HAqWKhdZ4ZWkqPBJDIEz-46" edge="1">
          <mxGeometry width="100" height="100" relative="1" as="geometry">
            <mxPoint x="580" y="740" as="sourcePoint" />
            <mxPoint x="680" y="640" as="targetPoint" />
          </mxGeometry>
        </mxCell>
        <mxCell id="HAqWKhdZ4ZWkqPBJDIEz-59" value="Procuracao_Validade" style="ellipse;whiteSpace=wrap;html=1;align=center;" parent="1" vertex="1">
          <mxGeometry x="900" y="720" width="130" height="40" as="geometry" />
        </mxCell>
        <mxCell id="HAqWKhdZ4ZWkqPBJDIEz-60" value="" style="fontSize=12;html=1;endArrow=ERmandOne;startArrow=ERmandOne;rounded=0;" parent="1" source="HAqWKhdZ4ZWkqPBJDIEz-59" target="P627tCivwq2NR-UUz_ly-27" edge="1">
          <mxGeometry width="100" height="100" relative="1" as="geometry">
            <mxPoint x="580" y="640" as="sourcePoint" />
            <mxPoint x="680" y="540" as="targetPoint" />
          </mxGeometry>
        </mxCell>
        <mxCell id="HAqWKhdZ4ZWkqPBJDIEz-61" value="" style="endArrow=none;html=1;rounded=0;dashed=1;dashPattern=1 2;" parent="1" source="HAqWKhdZ4ZWkqPBJDIEz-8" target="HAqWKhdZ4ZWkqPBJDIEz-28" edge="1">
          <mxGeometry relative="1" as="geometry">
            <mxPoint x="550" y="590" as="sourcePoint" />
            <mxPoint x="710" y="590" as="targetPoint" />
          </mxGeometry>
        </mxCell>
        <mxCell id="HAqWKhdZ4ZWkqPBJDIEz-62" value="1" style="resizable=0;html=1;align=right;verticalAlign=bottom;" parent="HAqWKhdZ4ZWkqPBJDIEz-61" connectable="0" vertex="1">
          <mxGeometry x="1" relative="1" as="geometry">
            <mxPoint x="-5" y="20" as="offset" />
          </mxGeometry>
        </mxCell>
        <mxCell id="HAqWKhdZ4ZWkqPBJDIEz-63" value="" style="endArrow=none;html=1;rounded=0;dashed=1;dashPattern=1 2;entryX=0.5;entryY=1;entryDx=0;entryDy=0;" parent="1" source="HAqWKhdZ4ZWkqPBJDIEz-28" target="HAqWKhdZ4ZWkqPBJDIEz-27" edge="1">
          <mxGeometry relative="1" as="geometry">
            <mxPoint x="550" y="590" as="sourcePoint" />
            <mxPoint x="710" y="590" as="targetPoint" />
          </mxGeometry>
        </mxCell>
        <mxCell id="HAqWKhdZ4ZWkqPBJDIEz-64" value="N" style="resizable=0;html=1;align=right;verticalAlign=bottom;" parent="HAqWKhdZ4ZWkqPBJDIEz-63" connectable="0" vertex="1">
          <mxGeometry x="1" relative="1" as="geometry">
            <mxPoint x="-5" y="75" as="offset" />
          </mxGeometry>
        </mxCell>
        <mxCell id="HAqWKhdZ4ZWkqPBJDIEz-65" value="" style="endArrow=none;html=1;rounded=0;" parent="1" source="HAqWKhdZ4ZWkqPBJDIEz-8" target="HAqWKhdZ4ZWkqPBJDIEz-69" edge="1">
          <mxGeometry relative="1" as="geometry">
            <mxPoint x="550" y="590" as="sourcePoint" />
            <mxPoint x="621.8803418803418" y="598.2051282051282" as="targetPoint" />
          </mxGeometry>
        </mxCell>
        <mxCell id="HAqWKhdZ4ZWkqPBJDIEz-66" value="M" style="resizable=0;html=1;align=right;verticalAlign=bottom;" parent="HAqWKhdZ4ZWkqPBJDIEz-65" connectable="0" vertex="1">
          <mxGeometry x="1" relative="1" as="geometry">
            <mxPoint x="-25" y="5" as="offset" />
          </mxGeometry>
        </mxCell>
        <mxCell id="HAqWKhdZ4ZWkqPBJDIEz-67" value="" style="endArrow=none;html=1;rounded=0;" parent="1" source="HAqWKhdZ4ZWkqPBJDIEz-69" target="HAqWKhdZ4ZWkqPBJDIEz-42" edge="1">
          <mxGeometry relative="1" as="geometry">
            <mxPoint x="676.8316831683167" y="588.8118811881188" as="sourcePoint" />
            <mxPoint x="710" y="590" as="targetPoint" />
          </mxGeometry>
        </mxCell>
        <mxCell id="HAqWKhdZ4ZWkqPBJDIEz-68" value="N" style="resizable=0;html=1;align=right;verticalAlign=bottom;" parent="HAqWKhdZ4ZWkqPBJDIEz-67" connectable="0" vertex="1">
          <mxGeometry x="1" relative="1" as="geometry">
            <mxPoint x="-40" y="-2" as="offset" />
          </mxGeometry>
        </mxCell>
        <mxCell id="HAqWKhdZ4ZWkqPBJDIEz-69" value="Representa" style="shape=associativeEntity;whiteSpace=wrap;html=1;align=center;" parent="1" vertex="1">
          <mxGeometry x="585" y="560" width="90" height="40" as="geometry" />
        </mxCell>
        <mxCell id="HAqWKhdZ4ZWkqPBJDIEz-86" value="Telefone_Pessoal" style="ellipse;whiteSpace=wrap;html=1;align=center;" parent="1" vertex="1">
          <mxGeometry x="900" y="430" width="100" height="40" as="geometry" />
        </mxCell>
        <mxCell id="HAqWKhdZ4ZWkqPBJDIEz-87" value="" style="fontSize=12;html=1;endArrow=ERmandOne;startArrow=ERmandOne;rounded=0;" parent="1" source="HAqWKhdZ4ZWkqPBJDIEz-42" target="HAqWKhdZ4ZWkqPBJDIEz-86" edge="1">
          <mxGeometry width="100" height="100" relative="1" as="geometry">
            <mxPoint x="870" y="620" as="sourcePoint" />
            <mxPoint x="931.58893602013" y="637.1963120067101" as="targetPoint" />
          </mxGeometry>
        </mxCell>
        <mxCell id="P627tCivwq2NR-UUz_ly-1" value="Possui" style="shape=rhombus;perimeter=rhombusPerimeter;whiteSpace=wrap;html=1;align=center;" parent="1" vertex="1">
          <mxGeometry x="350" y="370" width="120" height="60" as="geometry" />
        </mxCell>
        <mxCell id="P627tCivwq2NR-UUz_ly-2" value="" style="endArrow=none;html=1;rounded=0;" parent="1" source="P627tCivwq2NR-UUz_ly-1" target="HAqWKhdZ4ZWkqPBJDIEz-8" edge="1">
          <mxGeometry relative="1" as="geometry">
            <mxPoint x="500" y="540" as="sourcePoint" />
            <mxPoint x="660" y="540" as="targetPoint" />
          </mxGeometry>
        </mxCell>
        <mxCell id="P627tCivwq2NR-UUz_ly-4" value="" style="endArrow=none;html=1;rounded=0;" parent="1" source="P627tCivwq2NR-UUz_ly-1" target="HAqWKhdZ4ZWkqPBJDIEz-27" edge="1">
          <mxGeometry relative="1" as="geometry">
            <mxPoint x="500" y="540" as="sourcePoint" />
            <mxPoint x="660" y="540" as="targetPoint" />
          </mxGeometry>
        </mxCell>
        <mxCell id="P627tCivwq2NR-UUz_ly-5" value="" style="endArrow=none;html=1;rounded=0;" parent="1" source="P627tCivwq2NR-UUz_ly-1" target="HAqWKhdZ4ZWkqPBJDIEz-35" edge="1">
          <mxGeometry relative="1" as="geometry">
            <mxPoint x="500" y="340" as="sourcePoint" />
            <mxPoint x="660" y="340" as="targetPoint" />
          </mxGeometry>
        </mxCell>
        <mxCell id="P627tCivwq2NR-UUz_ly-6" value="N" style="resizable=0;html=1;align=right;verticalAlign=bottom;" parent="P627tCivwq2NR-UUz_ly-5" connectable="0" vertex="1">
          <mxGeometry x="1" relative="1" as="geometry">
            <mxPoint x="-5" y="30" as="offset" />
          </mxGeometry>
        </mxCell>
        <mxCell id="P627tCivwq2NR-UUz_ly-10" value="Processo_SEI" style="ellipse;whiteSpace=wrap;html=1;align=center;fontStyle=4;fillColor=#f8cecc;strokeColor=#b85450;" parent="1" vertex="1">
          <mxGeometry x="120" y="120" width="100" height="40" as="geometry" />
        </mxCell>
        <mxCell id="P627tCivwq2NR-UUz_ly-11" value="Tipo de Autorização" style="ellipse;whiteSpace=wrap;html=1;align=center;" parent="1" vertex="1">
          <mxGeometry x="280" y="120" width="100" height="40" as="geometry" />
        </mxCell>
        <mxCell id="P627tCivwq2NR-UUz_ly-12" value="Produtor" style="ellipse;whiteSpace=wrap;html=1;align=center;" parent="1" vertex="1">
          <mxGeometry x="170" y="20" width="100" height="40" as="geometry" />
        </mxCell>
        <mxCell id="P627tCivwq2NR-UUz_ly-13" value="Comercializador" style="ellipse;whiteSpace=wrap;html=1;align=center;" parent="1" vertex="1">
          <mxGeometry x="280" y="20" width="100" height="40" as="geometry" />
        </mxCell>
        <mxCell id="P627tCivwq2NR-UUz_ly-14" value="Transportador" style="ellipse;whiteSpace=wrap;html=1;align=center;" parent="1" vertex="1">
          <mxGeometry x="390" y="20" width="100" height="40" as="geometry" />
        </mxCell>
        <mxCell id="P627tCivwq2NR-UUz_ly-15" value="Carregador" style="ellipse;whiteSpace=wrap;html=1;align=center;" parent="1" vertex="1">
          <mxGeometry x="410" y="80" width="100" height="40" as="geometry" />
        </mxCell>
        <mxCell id="P627tCivwq2NR-UUz_ly-16" value="" style="fontSize=12;html=1;endArrow=ERmandOne;startArrow=ERmandOne;rounded=0;" parent="1" source="HAqWKhdZ4ZWkqPBJDIEz-35" target="P627tCivwq2NR-UUz_ly-10" edge="1">
          <mxGeometry width="100" height="100" relative="1" as="geometry">
            <mxPoint x="230" y="290" as="sourcePoint" />
            <mxPoint x="330" y="190" as="targetPoint" />
          </mxGeometry>
        </mxCell>
        <mxCell id="P627tCivwq2NR-UUz_ly-22" value="" style="fontSize=12;html=1;endArrow=ERzeroToOne;endFill=1;rounded=0;" parent="1" source="P627tCivwq2NR-UUz_ly-11" target="P627tCivwq2NR-UUz_ly-12" edge="1">
          <mxGeometry width="100" height="100" relative="1" as="geometry">
            <mxPoint x="360" y="290" as="sourcePoint" />
            <mxPoint x="460" y="190" as="targetPoint" />
          </mxGeometry>
        </mxCell>
        <mxCell id="P627tCivwq2NR-UUz_ly-23" value="" style="fontSize=12;html=1;endArrow=ERzeroToOne;endFill=1;rounded=0;" parent="1" source="P627tCivwq2NR-UUz_ly-11" target="P627tCivwq2NR-UUz_ly-13" edge="1">
          <mxGeometry width="100" height="100" relative="1" as="geometry">
            <mxPoint x="319.882009083972" y="131.69036781799696" as="sourcePoint" />
            <mxPoint x="250.1369307132975" y="68.30630064845218" as="targetPoint" />
          </mxGeometry>
        </mxCell>
        <mxCell id="P627tCivwq2NR-UUz_ly-24" value="" style="fontSize=12;html=1;endArrow=ERzeroToOne;endFill=1;rounded=0;" parent="1" source="P627tCivwq2NR-UUz_ly-11" target="P627tCivwq2NR-UUz_ly-14" edge="1">
          <mxGeometry width="100" height="100" relative="1" as="geometry">
            <mxPoint x="340" y="130" as="sourcePoint" />
            <mxPoint x="340" y="70" as="targetPoint" />
          </mxGeometry>
        </mxCell>
        <mxCell id="P627tCivwq2NR-UUz_ly-25" value="" style="fontSize=12;html=1;endArrow=ERzeroToOne;endFill=1;rounded=0;" parent="1" source="P627tCivwq2NR-UUz_ly-11" target="P627tCivwq2NR-UUz_ly-15" edge="1">
          <mxGeometry width="100" height="100" relative="1" as="geometry">
            <mxPoint x="360.1179909160278" y="131.6903678179974" as="sourcePoint" />
            <mxPoint x="429.86306928669455" y="68.30630064845968" as="targetPoint" />
          </mxGeometry>
        </mxCell>
        <mxCell id="P627tCivwq2NR-UUz_ly-26" value="" style="fontSize=12;html=1;endArrow=ERmandOne;startArrow=ERmandOne;rounded=0;" parent="1" source="HAqWKhdZ4ZWkqPBJDIEz-35" target="P627tCivwq2NR-UUz_ly-11" edge="1">
          <mxGeometry width="100" height="100" relative="1" as="geometry">
            <mxPoint x="360" y="290" as="sourcePoint" />
            <mxPoint x="460" y="190" as="targetPoint" />
          </mxGeometry>
        </mxCell>
        <mxCell id="P627tCivwq2NR-UUz_ly-27" value="Procuracao" style="ellipse;whiteSpace=wrap;html=1;align=center;" parent="1" vertex="1">
          <mxGeometry x="790" y="650" width="100" height="40" as="geometry" />
        </mxCell>
        <mxCell id="P627tCivwq2NR-UUz_ly-28" value="" style="fontSize=12;html=1;endArrow=ERzeroToOne;endFill=1;rounded=0;" parent="1" source="HAqWKhdZ4ZWkqPBJDIEz-42" target="P627tCivwq2NR-UUz_ly-27" edge="1">
          <mxGeometry width="100" height="100" relative="1" as="geometry">
            <mxPoint x="360" y="740" as="sourcePoint" />
            <mxPoint x="460" y="640" as="targetPoint" />
          </mxGeometry>
        </mxCell>
        <mxCell id="P627tCivwq2NR-UUz_ly-32" value="ID_Representante" style="ellipse;whiteSpace=wrap;html=1;align=center;fontStyle=4;fillColor=#f8cecc;strokeColor=#b85450;" parent="1" vertex="1">
          <mxGeometry x="655" y="650" width="110" height="50" as="geometry" />
        </mxCell>
        <mxCell id="P627tCivwq2NR-UUz_ly-33" value="" style="fontSize=12;html=1;endArrow=ERmandOne;startArrow=ERmandOne;rounded=0;" parent="1" source="P627tCivwq2NR-UUz_ly-32" target="HAqWKhdZ4ZWkqPBJDIEz-42" edge="1">
          <mxGeometry width="100" height="100" relative="1" as="geometry">
            <mxPoint x="600" y="630" as="sourcePoint" />
            <mxPoint x="700" y="530" as="targetPoint" />
          </mxGeometry>
        </mxCell>
        <mxCell id="eVJuw4eLiP8dLdxVabgO-2" value="CNPJ" style="ellipse;whiteSpace=wrap;html=1;align=center;fillColor=#d5e8d4;strokeColor=#82b366;" parent="1" vertex="1">
          <mxGeometry x="60" y="180" width="100" height="40" as="geometry" />
        </mxCell>
        <mxCell id="eVJuw4eLiP8dLdxVabgO-3" value="" style="fontSize=12;html=1;endArrow=ERmandOne;startArrow=ERmandOne;rounded=0;" parent="1" source="HAqWKhdZ4ZWkqPBJDIEz-35" target="eVJuw4eLiP8dLdxVabgO-2" edge="1">
          <mxGeometry width="100" height="100" relative="1" as="geometry">
            <mxPoint x="273.3333333333335" y="220" as="sourcePoint" />
            <mxPoint x="203.52941176470586" y="167.64705882352928" as="targetPoint" />
          </mxGeometry>
        </mxCell>
        <mxCell id="QfwaTl23RyNJ_GyKFCQM-1" value="Endereco_Matriz" style="ellipse;whiteSpace=wrap;html=1;align=center;" vertex="1" parent="1">
          <mxGeometry x="110" y="390" width="100" height="40" as="geometry" />
        </mxCell>
        <mxCell id="QfwaTl23RyNJ_GyKFCQM-2" value="Cep" style="ellipse;whiteSpace=wrap;html=1;align=center;" vertex="1" parent="1">
          <mxGeometry x="110" y="445" width="100" height="40" as="geometry" />
        </mxCell>
        <mxCell id="QfwaTl23RyNJ_GyKFCQM-3" value="Bairro" style="ellipse;whiteSpace=wrap;html=1;align=center;" vertex="1" parent="1">
          <mxGeometry x="110" y="505" width="100" height="40" as="geometry" />
        </mxCell>
        <mxCell id="QfwaTl23RyNJ_GyKFCQM-4" value="UF" style="ellipse;whiteSpace=wrap;html=1;align=center;" vertex="1" parent="1">
          <mxGeometry x="110" y="560" width="100" height="40" as="geometry" />
        </mxCell>
        <mxCell id="QfwaTl23RyNJ_GyKFCQM-7" value="" style="fontSize=12;html=1;endArrow=ERmandOne;startArrow=ERmandOne;rounded=0;" edge="1" parent="1" source="QfwaTl23RyNJ_GyKFCQM-1" target="HAqWKhdZ4ZWkqPBJDIEz-5">
          <mxGeometry width="100" height="100" relative="1" as="geometry">
            <mxPoint x="741.6655614218628" y="662.0213742495393" as="sourcePoint" />
            <mxPoint x="786.1111111111111" y="615" as="targetPoint" />
          </mxGeometry>
        </mxCell>
        <mxCell id="QfwaTl23RyNJ_GyKFCQM-8" value="" style="fontSize=12;html=1;endArrow=ERmandOne;startArrow=ERmandOne;rounded=0;" edge="1" parent="1" source="QfwaTl23RyNJ_GyKFCQM-2" target="HAqWKhdZ4ZWkqPBJDIEz-5">
          <mxGeometry width="100" height="100" relative="1" as="geometry">
            <mxPoint x="200.14165445929098" y="435.957346478448" as="sourcePoint" />
            <mxPoint x="289.99999999999727" y="483.99999999999864" as="targetPoint" />
          </mxGeometry>
        </mxCell>
        <mxCell id="QfwaTl23RyNJ_GyKFCQM-9" value="" style="fontSize=12;html=1;endArrow=ERmandOne;startArrow=ERmandOne;rounded=0;" edge="1" parent="1" source="QfwaTl23RyNJ_GyKFCQM-3" target="HAqWKhdZ4ZWkqPBJDIEz-5">
          <mxGeometry width="100" height="100" relative="1" as="geometry">
            <mxPoint x="216.21995246166261" y="482.6285358431869" as="sourcePoint" />
            <mxPoint x="273.84615384615313" y="492.3076923076924" as="targetPoint" />
          </mxGeometry>
        </mxCell>
        <mxCell id="QfwaTl23RyNJ_GyKFCQM-10" value="" style="fontSize=12;html=1;endArrow=ERmandOne;startArrow=ERmandOne;rounded=0;" edge="1" parent="1" source="QfwaTl23RyNJ_GyKFCQM-4" target="HAqWKhdZ4ZWkqPBJDIEz-5">
          <mxGeometry width="100" height="100" relative="1" as="geometry">
            <mxPoint x="226.21995246166261" y="492.6285358431869" as="sourcePoint" />
            <mxPoint x="283.84615384615313" y="502.3076923076924" as="targetPoint" />
          </mxGeometry>
        </mxCell>
        <mxCell id="QfwaTl23RyNJ_GyKFCQM-14" value="Desligado" style="ellipse;whiteSpace=wrap;html=1;align=center;" vertex="1" parent="1">
          <mxGeometry x="980" y="490" width="100" height="40" as="geometry" />
        </mxCell>
        <mxCell id="QfwaTl23RyNJ_GyKFCQM-15" value="" style="fontSize=12;html=1;endArrow=ERmandOne;startArrow=ERmandOne;rounded=0;" edge="1" parent="1" source="HAqWKhdZ4ZWkqPBJDIEz-42" target="QfwaTl23RyNJ_GyKFCQM-14">
          <mxGeometry width="100" height="100" relative="1" as="geometry">
            <mxPoint x="827.962962962963" y="575" as="sourcePoint" />
            <mxPoint x="939.1325026750978" y="478.1749170249145" as="targetPoint" />
          </mxGeometry>
        </mxCell>
      </root>
    </mxGraphModel>
  </diagram>
</mxfile>
